<?xml version="1.0" encoding="UTF-8" standalone="no"?>
<svg
   viewBox="0 0 500 500"
   version="1.1"
   id="svg241"
   sodipodi:docname="credit_mobile.svg"
   inkscape:version="1.1 (c68e22c387, 2021-05-23)"
   xmlns:inkscape="http://www.inkscape.org/namespaces/inkscape"
   xmlns:sodipodi="http://sodipodi.sourceforge.net/DTD/sodipodi-0.dtd"
   xmlns="http://www.w3.org/2000/svg"
   xmlns:svg="http://www.w3.org/2000/svg">
  <defs
     id="defs245" />
  <sodipodi:namedview
     id="namedview243"
     pagecolor="#505050"
     bordercolor="#eeeeee"
     borderopacity="1"
     inkscape:pageshadow="0"
     inkscape:pageopacity="0"
     inkscape:pagecheckerboard="0"
     showgrid="false"
     inkscape:zoom="1.4142136"
     inkscape:cx="555.07881"
     inkscape:cy="257.38686"
     inkscape:window-width="2496"
     inkscape:window-height="1558"
     inkscape:window-x="-11"
     inkscape:window-y="-11"
     inkscape:window-maximized="1"
     inkscape:current-layer="freepik--Device--inject-48" />
  <g
     id="freepik--background-simple--inject-48"
     transform="translate(4.4469419,-2.7303153)">
    <path
       d="m 67.93,167.09 c 0,0 -27.88,72 11.3,144.5 39.18,72.5 119.88,110.8 184.47,143.55 64.59,32.75 131.66,16.8 163.53,-36.84 31.87,-53.64 -11.84,-91.93 -11.9,-168.42 -0.06,-76.49 11.45,-96.74 -30,-161.36 C 343.88,23.9 242.27,9.59 165.43,57.52 88.59,105.45 67.93,167.09 67.93,167.09 Z"
       style="opacity:0.7;fill:#ffffff"
       id="path2" />
    <path
       d="m 132,427.57 c 23.6,24.92 81.54,15.79 106.64,0 C 320.14,376.32 462.92,291 469.39,167.4 472.14,114.87 425.81,87.28 406.46,79.19 360,59.75 309,53.92 258.65,51.67 206.08,49.32 149.65,51.15 102.34,76.8 84.4,86.51 67.48,99 55.9,116 c -11.76,17.28 -18.53,37.86 -20.33,58.63 -2.89,33.5 6.12,67.09 19.75,97.83 13.63,30.74 31.8,59.2 48.48,88.4 10.89,19.03 8.36,45.72 28.2,66.71 z"
       style="fill:#90caf9"
       id="path4" />
    <path
       d="m 132,427.57 c 23.6,24.92 81.54,15.79 106.64,0 C 320.14,376.32 462.92,291 469.39,167.4 472.14,114.87 425.81,87.28 406.46,79.19 360,59.75 309,53.92 258.65,51.67 206.08,49.32 149.65,51.15 102.34,76.8 84.4,86.51 67.48,99 55.9,116 c -11.76,17.28 -18.53,37.86 -20.33,58.63 -2.89,33.5 6.12,67.09 19.75,97.83 13.63,30.74 31.8,59.2 48.48,88.4 10.89,19.03 8.36,45.72 28.2,66.71 z"
       style="opacity:0.7;fill:#ffffff"
       id="path6" />
  </g>
  <g
     id="freepik--Graphics--inject-48"
     transform="translate(4.4469419,-2.7303153)">
    <rect
       x="83.129997"
       y="132.19"
       width="56.970001"
       height="36.43"
       rx="3.51"
       transform="matrix(0.96,0.29,-0.29,0.96,48.42,-25.9)"
       style="fill:none;stroke:#263238;stroke-miterlimit:10"
       id="rect9" />
    <line
       x1="87.18"
       y1="132.84"
       x2="141.69"
       y2="149.36"
       style="fill:none;stroke:#263238;stroke-miterlimit:10"
       id="line11" />
    <line
       x1="85.519997"
       y1="138.31"
       x2="140.03999"
       y2="154.83"
       style="fill:none;stroke:#263238;stroke-miterlimit:10"
       id="line13" />
    <path
       d="m 123.45,165.06 a 3.56,3.56 0 0 0 0.31,2.78 3.6,3.6 0 0 1 -2.63,0.22 3.55,3.55 0 1 1 4.12,-5.14 3.6,3.6 0 0 0 -1.8,2.14 z"
       style="fill:none;stroke:#263238;stroke-miterlimit:10"
       id="path15" />
    <path
       d="m 130.24,167.12 a 3.55,3.55 0 1 1 -2.36,-4.43 3.55,3.55 0 0 1 2.36,4.43 z"
       style="fill:none;stroke:#263238;stroke-miterlimit:10"
       id="path17" />
    <rect
       x="418.60001"
       y="202.08"
       width="48.450001"
       height="30.98"
       rx="3.51"
       transform="rotate(16.86,442.77966,217.55264)"
       style="fill:none;stroke:#263238;stroke-miterlimit:10"
       id="rect19" />
    <line
       x1="422.04001"
       y1="202.62"
       x2="468.41"
       y2="216.67"
       style="fill:none;stroke:#263238;stroke-miterlimit:10"
       id="line21" />
    <line
       x1="420.63"
       y1="207.28"
       x2="466.98999"
       y2="221.33"
       style="fill:none;stroke:#263238;stroke-miterlimit:10"
       id="line23" />
    <path
       d="m 452.89,230 a 3,3 0 0 0 0.26,2.36 3,3 0 1 1 -0.48,-5.58 3,3 0 0 1 1.75,1.4 3,3 0 0 0 -1.53,1.82 z"
       style="fill:none;stroke:#263238;stroke-miterlimit:10"
       id="path25" />
    <path
       d="m 458.66,231.78 a 3,3 0 1 1 -2,-3.77 3,3 0 0 1 2,3.77 z"
       style="fill:none;stroke:#263238;stroke-miterlimit:10"
       id="path27" />
    <rect
       x="349.79999"
       y="110.95"
       width="63.66"
       height="33.119999"
       transform="rotate(-24.6,381.65714,127.51174)"
       style="fill:none;stroke:#263238;stroke-miterlimit:10"
       id="rect29" />
    <path
       d="m 412.49,125 -8.76,-19.13 a 3.4,3.4 0 0 1 -4.5,-1.67 l -46.79,21.42 a 3.4,3.4 0 0 1 -1.67,4.5 l 8.76,19.13 a 3.39,3.39 0 0 1 4.5,1.68 l 46.78,-21.43 a 3.39,3.39 0 0 1 1.68,-4.5 z"
       style="fill:none;stroke:#263238;stroke-miterlimit:10"
       id="path31" />
    <circle
       cx="381.63"
       cy="127.51"
       r="8.6999998"
       transform="rotate(-37.53,381.65994,127.51709)"
       style="fill:none;stroke:#263238;stroke-miterlimit:10"
       id="circle33" />
    <path
       d="m 384,131.74 0.65,1.42 -0.62,0.28 -0.64,-1.4 a 5.11,5.11 0 0 1 -3.47,0.22 v -0.87 A 4.59,4.59 0 0 0 383,131.24 L 381.53,128 c -1.52,0.29 -3.09,0.51 -3.84,-1.13 -0.54,-1.18 -0.16,-2.6 1.66,-3.61 l -0.65,-1.43 0.62,-0.28 0.68,1.45 a 5.27,5.27 0 0 1 2.86,-0.38 v 0.87 a 5,5 0 0 0 -2.53,0.29 l 1.5,3.28 c 1.55,-0.31 3.2,-0.59 4,1.07 0.5,1.15 0.07,2.6 -1.83,3.61 z m -2.86,-4.61 -1.42,-3.13 c -1.23,0.69 -1.5,1.61 -1.14,2.39 0.42,0.98 1.42,0.94 2.55,0.74 z m 3.77,1.41 c -0.44,-1 -1.5,-0.9 -2.68,-0.67 l 1.41,3.09 c 1.36,-0.72 1.62,-1.63 1.26,-2.42 z"
       style="fill:#263238"
       id="path35" />
    <rect
       x="39.580002"
       y="237.71001"
       width="44.509998"
       height="23.15"
       transform="matrix(1,-0.09,0.09,1,-21.24,6.25)"
       style="fill:none;stroke:#263238;stroke-miterlimit:10"
       id="rect37" />
    <path
       d="m 82.75,254.86 -1.26,-14.65 a 2.38,2.38 0 0 1 -2.57,-2.16 l -35.84,3.1 a 2.39,2.39 0 0 1 -2.16,2.57 l 1.26,14.65 a 2.37,2.37 0 0 1 2.57,2.16 l 35.84,-3.1 a 2.39,2.39 0 0 1 2.16,-2.57 z"
       style="fill:none;stroke:#263238;stroke-miterlimit:10"
       id="path39" />
    <path
       d="m 67.9,248.77 a 6.09,6.09 0 1 1 -6.59,-5.54 6.08,6.08 0 0 1 6.59,5.54 z"
       style="fill:none;stroke:#263238;stroke-miterlimit:10"
       id="path41" />
    <path
       d="m 62.4,252.63 0.09,1.09 h -0.47 l -0.1,-1.08 a 3.57,3.57 0 0 1 -2.33,-0.67 l 0.22,-0.56 a 3.26,3.26 0 0 0 2.06,0.62 l -0.21,-2.49 c -1.07,-0.16 -2.16,-0.39 -2.26,-1.64 -0.08,-0.91 0.5,-1.76 1.94,-2 l -0.09,-1.09 h 0.47 l 0.09,1.07 a 3.76,3.76 0 0 1 2,0.43 l -0.19,0.57 a 3.56,3.56 0 0 0 -1.73,-0.4 l 0.21,2.51 c 1.09,0.16 2.25,0.37 2.36,1.64 0.06,0.93 -0.57,1.78 -2.06,2 z m -0.8,-3.71 -0.21,-2.37 c -1,0.17 -1.36,0.71 -1.31,1.31 0.05,0.6 0.72,0.93 1.52,1.06 z m 2.15,1.82 c -0.07,-0.75 -0.78,-1 -1.61,-1.08 l 0.2,2.37 c 1.04,-0.17 1.46,-0.69 1.41,-1.29 z"
       style="fill:#263238"
       id="path43" />
    <circle
       cx="444.32999"
       cy="104.01"
       r="8.6999998"
       style="fill:none;stroke:#263238;stroke-miterlimit:10"
       id="circle45" />
    <path
       d="m 444.72,108.84 v 1.56 H 444 v -1.55 a 5.18,5.18 0 0 1 -3.25,-1.23 l 0.39,-0.78 A 4.69,4.69 0 0 0 444,108 v -3.57 c -1.5,-0.37 -3,-0.83 -3,-2.63 0,-1.3 0.94,-2.43 3,-2.59 v -1.59 h 0.68 v 1.55 a 5.27,5.27 0 0 1 2.76,0.85 l -0.34,0.8 a 5,5 0 0 0 -2.42,-0.79 v 3.6 c 1.53,0.37 3.15,0.8 3.15,2.63 0.04,1.31 -0.95,2.46 -3.11,2.58 z m -0.68,-5.39 v -3.39 c -1.4,0.12 -2,0.84 -2,1.7 -0.04,1.03 0.88,1.41 1.96,1.69 z m 2.84,2.86 c 0,-1.07 -1,-1.44 -2.16,-1.73 V 108 c 1.49,-0.13 2.16,-0.82 2.16,-1.69 z"
       style="fill:#263238"
       id="path47" />
    <circle
       cx="385.04001"
       cy="211.92"
       r="8.6999998"
       transform="rotate(-13.26,385.09365,211.95811)"
       style="fill:none;stroke:#263238;stroke-miterlimit:10"
       id="circle49" />
    <path
       d="m 382.84,216.24 -0.81,1.33 -0.58,-0.36 0.81,-1.32 a 5.09,5.09 0 0 1 -2.12,-2.75 l 0.74,-0.46 a 4.66,4.66 0 0 0 1.83,2.47 l 1.88,-3.05 c -1.09,-1.09 -2.14,-2.28 -1.2,-3.81 0.68,-1.11 2.07,-1.58 3.93,-0.63 l 0.82,-1.34 0.58,0.36 -0.81,1.32 a 5.42,5.42 0 0 1 1.91,2.16 l -0.71,0.51 a 5.1,5.1 0 0 0 -1.65,-1.94 l -1.89,3.07 c 1.12,1.12 2.27,2.33 1.31,3.89 -0.69,1.12 -2.13,1.57 -4.04,0.55 z m 2.25,-5 1.77,-2.89 c -1.25,-0.63 -2.16,-0.35 -2.61,0.38 -0.54,0.93 0.03,1.74 0.84,2.56 z m 0.92,3.92 c 0.56,-0.91 -0.09,-1.74 -0.94,-2.6 l -1.78,2.9 c 1.33,0.74 2.26,0.54 2.71,-0.25 z"
       style="fill:#263238"
       id="path51" />
    <path
       d="M 260.18,44 A 8.7,8.7 0 1 1 248.65,39.7 8.69,8.69 0 0 1 260.18,44 Z"
       style="fill:none;stroke:#263238;stroke-miterlimit:10"
       id="path53" />
    <path
       d="m 254.63,51.83 0.65,1.42 -0.62,0.29 -0.66,-1.41 a 5.11,5.11 0 0 1 -3.47,0.22 v -0.87 a 4.62,4.62 0 0 0 3.07,-0.14 l -1.48,-3.26 c -1.52,0.29 -3.09,0.5 -3.84,-1.13 -0.54,-1.19 -0.16,-2.6 1.67,-3.61 l -0.65,-1.43 0.61,-0.28 0.65,1.41 a 5.27,5.27 0 0 1 2.86,-0.38 v 0.87 a 5.05,5.05 0 0 0 -2.53,0.29 l 1.5,3.28 c 1.55,-0.31 3.2,-0.58 4,1.07 0.61,1.2 0.15,2.65 -1.76,3.66 z m -2.86,-4.61 -1.41,-3.09 c -1.23,0.69 -1.5,1.61 -1.14,2.38 0.43,0.94 1.42,0.91 2.55,0.71 z m 3.77,1.41 c -0.45,-1 -1.5,-0.89 -2.68,-0.67 l 1.41,3.09 c 1.31,-0.72 1.63,-1.62 1.27,-2.42 z"
       style="fill:#263238"
       id="path55" />
    <path
       d="m 230.88,396.33 a 13.07,13.07 0 1 1 -17.32,-6.46 13.07,13.07 0 0 1 17.32,6.46 z"
       style="fill:none;stroke:#263238;stroke-miterlimit:10"
       id="path57" />
    <path
       d="m 222.53,408.11 1,2.14 -0.93,0.42 -1,-2.12 a 7.66,7.66 0 0 1 -5.21,0.34 l 0.06,-1.3 a 6.93,6.93 0 0 0 4.61,-0.23 l -2.23,-4.88 c -2.27,0.43 -4.64,0.75 -5.76,-1.7 -0.82,-1.78 -0.24,-3.91 2.5,-5.43 l -1,-2.13 0.92,-0.43 1,2.12 a 8,8 0 0 1 4.3,-0.57 v 1.3 a 7.54,7.54 0 0 0 -3.79,0.44 l 2.24,4.92 c 2.33,-0.46 4.81,-0.87 5.95,1.61 0.86,1.81 0.22,3.99 -2.66,5.5 z m -4.28,-6.93 -2.13,-4.64 c -1.83,1 -2.24,2.41 -1.7,3.59 0.64,1.41 2.12,1.36 3.83,1.05 z m 5.66,2.13 c -0.67,-1.47 -2.26,-1.35 -4,-1 l 2.12,4.64 c 1.97,-1.09 2.42,-2.45 1.88,-3.64 z"
       style="fill:#263238"
       id="path59" />
    <path
       d="m 43.66,193.23 a 13.07,13.07 0 1 1 1.19,-18.45 13.07,13.07 0 0 1 -1.19,18.45 z"
       style="fill:none;stroke:#263238;stroke-miterlimit:10"
       id="path61" />
    <path
       d="m 30,188.63 -1.76,1.55 -0.68,-0.77 1.75,-1.53 a 7.75,7.75 0 0 1 -1.83,-4.9 l 1.27,-0.32 a 7,7 0 0 0 1.51,4.34 l 4,-3.54 c -1.07,-2.05 -2.06,-4.23 0,-6 1.48,-1.29 3.68,-1.35 5.92,0.83 l 1.82,-1.54 0.67,0.76 -1.75,1.54 a 8,8 0 0 1 1.74,3.95 l -1.24,0.41 a 7.67,7.67 0 0 0 -1.51,-3.51 l -4.07,3.57 c 1.11,2.09 2.22,4.35 0.17,6.16 -1.49,1.3 -3.76,1.37 -6.01,-1 z m 5.4,-6.1 3.83,-3.37 c -1.52,-1.46 -3,-1.45 -3.92,-0.6 -1.2,1.02 -0.72,2.44 0.06,3.97 z m -0.41,6 c 1.22,-1.06 0.65,-2.55 -0.19,-4.15 l -3.83,3.37 c 1.57,1.61 3.03,1.67 4.03,0.81 z"
       style="fill:#263238"
       id="path63" />
    <circle
       cx="96.559998"
       cy="303.17001"
       r="6.3099999"
       transform="matrix(0.04,-1,1,0.04,-209.85,388.89)"
       style="fill:none;stroke:#263238;stroke-miterlimit:10"
       id="circle65" />
    <path
       d="m 99,305.68 0.72,0.87 -0.37,0.31 -0.72,-0.86 a 3.72,3.72 0 0 1 -2.39,0.82 L 96.1,306.2 a 3.37,3.37 0 0 0 2.12,-0.68 l -1.66,-2 c -1,0.49 -2.06,0.94 -2.9,-0.06 -0.6,-0.72 -0.6,-1.79 0.48,-2.85 l -0.73,-0.87 0.38,-0.31 0.72,0.86 a 3.87,3.87 0 0 1 1.93,-0.81 l 0.18,0.6 a 3.79,3.79 0 0 0 -1.71,0.69 l 1.67,2 c 1,-0.51 2.13,-1 3,0 0.61,0.74 0.59,1.84 -0.58,2.91 z M 96.14,303 94.56,301.11 c -0.72,0.72 -0.73,1.41 -0.34,1.89 0.39,0.48 1.17,0.35 1.92,0 z m 2.91,0.27 c -0.5,-0.59 -1.22,-0.34 -2,0.05 l 1.58,1.89 c 0.77,-0.76 0.82,-1.46 0.42,-1.95 z"
       style="fill:#263238"
       id="path67" />
    <path
       d="m 297.59,429.17 a 6.31,6.31 0 1 1 -8.89,-0.81 6.32,6.32 0 0 1 8.89,0.81 z"
       style="fill:none;stroke:#263238;stroke-miterlimit:10"
       id="path69" />
    <path
       d="m 295.19,435.72 0.73,0.87 -0.38,0.31 -0.72,-0.86 a 3.69,3.69 0 0 1 -2.38,0.82 l -0.14,-0.62 a 3.31,3.31 0 0 0 2.12,-0.68 l -1.66,-2 c -1,0.49 -2.07,0.94 -2.9,-0.06 -0.61,-0.72 -0.61,-1.79 0.47,-2.85 l -0.72,-0.87 0.38,-0.31 0.72,0.86 a 3.79,3.79 0 0 1 1.93,-0.81 l 0.18,0.6 a 3.83,3.83 0 0 0 -1.72,0.69 l 1.68,2 c 1,-0.51 2.13,-1 3,0 0.58,0.74 0.56,1.84 -0.59,2.91 z m -2.87,-2.72 -1.58,-1.89 c -0.73,0.72 -0.74,1.41 -0.34,1.89 0.4,0.48 1.16,0.39 1.92,0 z m 2.9,0.28 c -0.5,-0.6 -1.22,-0.35 -2,0 l 1.58,1.89 c 0.78,-0.68 0.83,-1.38 0.42,-1.86 z"
       style="fill:#263238"
       id="path71" />
    <circle
       cx="118.61"
       cy="69.110001"
       r="6.3099999"
       transform="rotate(-84.76,118.60533,69.112197)"
       style="fill:none;stroke:#263238;stroke-miterlimit:10"
       id="circle73" />
    <path
       d="m 121.07,71.62 0.72,0.87 -0.38,0.31 -0.72,-0.86 a 3.67,3.67 0 0 1 -2.38,0.82 l -0.14,-0.62 a 3.37,3.37 0 0 0 2.12,-0.68 l -1.66,-2 c -1,0.49 -2.07,0.94 -2.9,-0.06 -0.6,-0.72 -0.61,-1.79 0.48,-2.85 l -0.73,-0.87 0.38,-0.31 0.72,0.86 a 3.83,3.83 0 0 1 1.93,-0.81 l 0.18,0.6 a 3.79,3.79 0 0 0 -1.71,0.69 l 1.67,2 c 1,-0.51 2.13,-1 3,0 0.59,0.74 0.56,1.84 -0.58,2.91 z M 118.19,68.93 116.61,67 c -0.72,0.72 -0.74,1.41 -0.34,1.89 0.4,0.48 1.16,0.4 1.92,0.04 z m 2.91,0.27 c -0.5,-0.59 -1.23,-0.34 -2,0 l 1.58,1.89 c 0.77,-0.7 0.82,-1.4 0.42,-1.89 z"
       style="fill:#263238"
       id="path75" />
  </g>
  <g
     id="freepik--Device--inject-48"
     transform="matrix(1, 0, 0, 1, 179.809419, -0.608995)">
    <path
       d="m 85.447522,325.68868 c 0,0 -7.71,39.13 -55,48 0,0 -12.349999,9.85 -16.459999,15.68 -4.1100001,5.83 -26.000001,15.74 -48.300001,46.66 -22.3,30.92 -55.500004,-67.27 -55.500004,-67.27 l 73.380004,-95.3 z"
       style="opacity:0.2;fill-opacity:0.7"
       id="path78" />
    <path
       d="m 127.47752,141.95868 c 0,0 25.5,-12.47 31.11,-10.32 5.61,2.15 11,15.05 -10.45,27.4 -21.45,12.35 -15.05,35.36 -15.05,35.36 h 15.3 c 0,0 9.18,3.74 12.75,8.55 3.57,4.81 6.12,21.21 8.16,26.77 2.04,5.56 1,11.13 -4.59,12.94 0,0 -3.57,15.56 -2.55,22.46 1.02,6.9 0.51,11.34 -6.12,12.18 a 11.57,11.57 0 0 1 -12.75,-12.18 l -5.1,18.48 3.57,7.1 a 46.16,46.16 0 0 1 13.77,8.34 c 7.14,6.12 14.28,7.79 12.24,14.61 -2.04,6.82 -6.12,14.17 -27.54,5.65 -21.42,-8.52 -39.27,-42 -39.27,-42 l -12.869998,-116.74 z"
       style="fill:#ffffff"
       id="path80" />
    <path
       d="m 154.31752,209.01868 c -11.56,15.76 1.23,33.91 1.23,33.91 0,0 -8,4.46 -8.23,15.84 -0.09,4.73 1.1,11.34 2.52,17.46 a 11.46,11.46 0 0 1 -6.54,-11.11 l -5.11,18.48 3.57,7.09 a 43.77,43.77 0 0 1 10.52,5.79 c -3.17,7.28 -4.14,16.28 -3.86,25.56 a 68.24,68.24 0 0 1 -8.19,-2.74 c -21.42,-8.53 -39.27,-42 -39.27,-42 l -12.869998,-116.75 39.389998,-18.59 c 0,0 13.93,-6.81 23.47,-9.5 -0.74,8.92 1,18.15 2.26,23.29 a 53.8,53.8 0 0 1 -5.07,3.29 c -21.42,12.35 -15.05,35.36 -15.05,35.36 h 15.31 c 0,0 8.72,3.56 12.46,8.19 a 25,25 0 0 0 -6.54,6.43 z"
       style="opacity:0.4;fill:#90caf9"
       id="path82" />
    <path
       d="m 87.637522,306.87868 c 0,0 -27.74,54.39 -77.7399991,66.73 0,0 -1.91,10.76 -10.37000041,15.38 -4.51999999,2.46 -22.76000049,29.79 -38.77000049,54.74 l -88.680002,-54.4 c 5.46,-5.4 11.68,-11.62 18,-18.11 18.499998,-18.86 38.240002,-40 44.280002,-50.46 5.4,-9.3 12.23,-25.44 18.18,-40.61 7.62,-19.4 13.82,-37.22 13.82,-37.22 l 29.5600005,-32.86 46.4699995,-51.67 2,6.61 z"
       style="fill:#ffffff"
       id="path84" />
    <path
       d="m 42.427522,158.39868 45.21,148.48 c 0,0 -27.74,54.39 -77.7399991,66.73 0,0 -1.91,10.76 -10.37000041,15.38 -4.05999999,2.21 -19.17000049,24.46 -33.79000049,47 5.42,-18.6 21.11,-48.25 21.11,-48.25 -10.07,-11.93 -7.13,-24.5 -3.1,-20.92 4.03,3.58 14.1600005,13.64 14.8000005,14.27 -4.45,-5.24 -5.48,-13.45 -5.48,-13.45 0,0 12.4800004,8.3 13.4900004,-5 1.01,-13.3 -7.48000041,-45.8 -7.48000041,-45.8 l -22.29000049,-85.46 z"
       style="opacity:0.4;fill:#90caf9"
       id="path86" />
    <path
       d="m 88.087522,160.55868 39.389998,-18.6 c 0,0 25.5,-12.47 31.11,-10.32 5.61,2.15 11,15.05 -10.45,27.4 -21.45,12.35 -15.05,35.36 -15.05,35.36 h 15.3 c 0,0 9.18,3.74 12.75,8.55 3.57,4.81 6.12,21.21 8.16,26.77 2.04,5.56 1,11.13 -4.59,12.94 0,0 -3.57,15.56 -2.55,22.46 1.02,6.9 0.51,11.34 -6.12,12.18 a 11.57,11.57 0 0 1 -12.75,-12.18 l -5.1,18.48 3.57,7.1 a 46.16,46.16 0 0 1 13.77,8.34 c 7.14,6.12 14.28,7.79 12.24,14.61 -2.04,6.82 -6.12,14.17 -27.54,5.65 -21.42,-8.52 -39.27,-42 -39.27,-42"
       style="fill:none;stroke:#263238;stroke-linecap:round;stroke-linejoin:round"
       id="path88" />
    <path
       d="m 164.70752,242.65868 c -7.65,2.07 -16.57,0.54 -19.89,-13 -3.32,-13.54 3.32,-28 7.65,-29.33"
       style="fill:none;stroke:#263238;stroke-linecap:round;stroke-linejoin:round"
       id="path90" />
    <path
       d="m 143.28752,265.11868 c 0,0 -0.51,-17.41 5.87,-21.71"
       style="fill:none;stroke:#263238;stroke-linecap:round;stroke-linejoin:round"
       id="path92" />
    <path
       d="m -42.742478,351.58868 c 0,0 -18.69,-2.33 -22.86,-10.69 -3.45,-6.92 -22.150004,19 -44.280002,30.32 18.499998,-18.86 38.240002,-40 44.280002,-50.46 5.4,-9.3 12.23,-25.44 18.18,-40.61 v 0 c -0.3,12.58 -7,31.84 -5.09,41.87 a 8.05,8.05 0 0 0 -5.75,9.74 c 1.43,7.97 15.52,19.83 15.52,19.83 z"
       style="opacity:0.4;fill:#90caf9"
       id="path94" />
    <path
       d="m 87.637522,306.87868 c 0,0 -27.74,54.39 -77.7499991,66.73 0,0 -1.9,10.76 -10.36000041,15.38 -4.51999999,2.46 -22.75000049,29.79 -38.78000049,54.74"
       style="fill:none;stroke:#263238;stroke-linecap:round;stroke-linejoin:round"
       id="path96" />
    <path
       d="m -127.92248,389.32868 c 21.36,-21.11 54.190002,-54.58 62.320002,-68.57 12.3,-21.17 32,-77.84 32,-77.84 l 76,-84.52"
       style="fill:none;stroke:#263238;stroke-linecap:round;stroke-linejoin:round"
       id="path98" />
    <path
       d="m -0.97247751,222.94868 c 0,0 11.68000051,10.46 15.00000051,20"
       style="fill:none;stroke:#263238;stroke-linecap:round;stroke-linejoin:round"
       id="path100" />
    <rect
       x="4.4975238"
       y="70.598686"
       width="139.13"
       height="280.98999"
       rx="6.73"
       style="fill:#263238"
       id="rect102" />
    <path
       d="m 101.38752,75.248679 -2.659998,4.87 a 3.32,3.32 0 0 1 -2.91,1.76 h -44 a 3.35,3.35 0 0 1 -2.92,-1.74 l -2.65,-4.87 a 3.32,3.32 0 0 0 -2.92,-1.74 H 12.577523 a 3.33,3.33 0 0 0 -3.3200001,3.35 V 339.87868 a 3.33,3.33 0 0 0 3.3200001,3.33 H 135.03752 a 3.33,3.33 0 0 0 3.35,-3.33 V 76.878679 a 3.33,3.33 0 0 0 -3.33,-3.33 h -30.74 a 3.32,3.32 0 0 0 -2.93,1.7 z"
       style="fill:#90caf9;stroke:#263238;stroke-linecap:round;stroke-linejoin:round"
       id="path104" />
    <circle
       cx="64.517532"
       cy="78.818687"
       r="1.79"
       style="fill:none;stroke:#ffffff;stroke-miterlimit:10"
       id="circle106" />
    <path
       d="m 85.387522,78.818679 a 1.11,1.11 0 1 1 -1.11,-1.12 1.11,1.11 0 0 1 1.11,1.12 z"
       style="fill:none;stroke:#ffffff;stroke-miterlimit:10"
       id="path108" />
    <path
       d="m 80.407522,78.118679 h -10.88 a 0.69,0.69 0 0 0 -0.69,0.7 v 0 a 0.69,0.69 0 0 0 0.69,0.69 h 10.88 a 0.69,0.69 0 0 0 0.69,-0.69 v 0 a 0.69,0.69 0 0 0 -0.69,-0.7 z"
       style="fill:#ffffff"
       id="path110" />
    <rect
       x="113.31751"
       y="86.378685"
       width="2.0799999"
       height="1.8099999"
       style="fill:none;stroke:#263238;stroke-linecap:round;stroke-linejoin:round"
       id="rect112" />
    <rect
       x="117.37751"
       y="84.558685"
       width="2.0799999"
       height="3.6300001"
       style="fill:none;stroke:#263238;stroke-linecap:round;stroke-linejoin:round"
       id="rect114" />
    <rect
       x="121.43751"
       y="82.738686"
       width="2.0799999"
       height="5.4400001"
       style="fill:none;stroke:#263238;stroke-linecap:round;stroke-linejoin:round"
       id="rect116" />
    <rect
       x="125.48753"
       y="80.918686"
       width="2.0799999"
       height="7.2600002"
       style="fill:none;stroke:#263238;stroke-linecap:round;stroke-linejoin:round"
       id="rect118" />
    <rect
       x="11.566325"
       y="133.20758"
       width="127.44"
       height="121.55"
       style="opacity:0.5;fill:#ffffff"
       id="rect120" />
    <path
       d="m 88.459762,223.44267 h -32.26332 a 7.5561224,7.7089696 0 0 1 -7.54834,-7.70103 v 0 a 7.5561224,7.7089696 0 0 1 7.54834,-7.70897 h 32.26332 a 7.5483407,7.7010304 0 0 1 7.54834,7.70897 v 0 a 7.5483407,7.7010304 0 0 1 -7.54834,7.70103 z"
       style="fill:#263238;stroke-width:0.786011"
       id="path200-4" />
    <rect
       x="20.547527"
       y="149.36868"
       width="107.02"
       height="15.99"
       style="fill:#ffffff;stroke:#263238;stroke-linecap:round;stroke-linejoin:round"
       id="rect122" />
    <rect
       x="20.547527"
       y="179.35867"
       width="107.02"
       height="15.99"
       style="fill:#ffffff;stroke:#263238;stroke-linecap:round;stroke-linejoin:round"
       id="rect124" />
    <path
       d="m 28.027522,187.43868 0.84,0.48 -0.15,0.28 -0.85,-0.49 v 1 h -0.31 v -1 l -0.85,0.49 -0.16,-0.28 0.85,-0.48 -0.85,-0.47 0.16,-0.29 0.85,0.5 v -1 h 0.31 v 1 l 0.85,-0.5 0.15,0.29 z"
       style="fill:#263238"
       id="path126" />
    <path
       d="m 30.777522,187.43868 0.84,0.48 -0.16,0.28 -0.84,-0.49 v 1 h -0.32 v -1 l -0.84,0.49 -0.17,-0.28 0.85,-0.48 -0.85,-0.47 0.17,-0.29 0.84,0.5 v -1 h 0.34 v 1 l 0.84,-0.5 0.16,0.29 z"
       style="fill:#263238"
       id="path128" />
    <path
       d="m 33.517522,187.43868 0.84,0.48 -0.16,0.28 -0.84,-0.49 v 1 h -0.31 v -1 l -0.84,0.49 -0.16,-0.28 0.84,-0.48 -0.84,-0.47 0.16,-0.29 0.84,0.5 v -1 h 0.31 v 1 l 0.84,-0.5 0.16,0.29 z"
       style="fill:#263238"
       id="path130" />
    <path
       d="m 36.257522,187.43868 0.84,0.48 -0.15,0.28 -0.85,-0.49 v 1 h -0.31 v -1 l -0.85,0.49 -0.16,-0.28 0.85,-0.48 -0.85,-0.47 0.16,-0.29 0.85,0.5 v -1 h 0.31 v 1 l 0.85,-0.5 0.15,0.29 z"
       style="fill:#263238"
       id="path132" />
    <path
       d="m 39.007522,187.43868 0.84,0.48 -0.16,0.28 -0.84,-0.49 v 1 h -0.32 v -1 l -0.84,0.49 -0.17,-0.28 0.85,-0.48 -0.85,-0.47 0.17,-0.29 0.84,0.5 v -1 h 0.32 v 1 l 0.84,-0.5 0.16,0.29 z"
       style="fill:#263238"
       id="path134" />
    <path
       d="m 41.747522,187.43868 0.84,0.48 -0.16,0.28 -0.84,-0.49 v 1 h -0.31 v -1 l -0.84,0.49 -0.16,-0.28 0.84,-0.48 -0.84,-0.47 0.16,-0.29 0.84,0.5 v -1 h 0.36 v 1 l 0.84,-0.5 0.16,0.29 z"
       style="fill:#263238"
       id="path136" />
    <path
       d="m 44.487522,187.43868 0.84,0.48 -0.15,0.28 -0.85,-0.49 v 1 h -0.31 v -1 l -0.85,0.49 -0.16,-0.28 0.85,-0.48 -0.85,-0.47 0.16,-0.29 0.85,0.5 v -1 h 0.31 v 1 l 0.85,-0.5 0.15,0.29 z"
       style="fill:#263238"
       id="path138" />
    <path
       d="m 47.237522,187.43868 0.84,0.48 -0.16,0.28 -0.85,-0.49 v 1 h -0.31 v -1 l -0.84,0.49 -0.17,-0.28 0.85,-0.48 -0.85,-0.47 0.17,-0.29 0.84,0.5 v -1 h 0.31 v 1 l 0.85,-0.5 0.16,0.29 z"
       style="fill:#263238"
       id="path140" />
    <path
       d="m 49.977522,187.43868 0.84,0.48 -0.16,0.28 -0.84,-0.49 v 1 h -0.31 v -1 l -0.84,0.49 -0.16,-0.28 0.84,-0.48 -0.84,-0.47 0.16,-0.29 0.84,0.5 v -1 h 0.31 v 1 l 0.84,-0.5 0.16,0.29 z"
       style="fill:#263238"
       id="path142" />
    <path
       d="m 52.717522,187.43868 0.84,0.48 -0.15,0.28 -0.85,-0.49 v 1 h -0.31 v -1 l -0.85,0.49 -0.16,-0.28 0.84,-0.48 -0.84,-0.47 0.16,-0.29 0.85,0.5 v -1 h 0.31 v 1 l 0.85,-0.5 0.15,0.29 z"
       style="fill:#263238"
       id="path144" />
    <path
       d="m 55.467522,187.43868 0.83,0.48 -0.15,0.28 -0.85,-0.49 v 1 h -0.31 v -1 l -0.84,0.49 -0.17,-0.28 0.85,-0.48 -0.85,-0.47 0.17,-0.29 0.84,0.5 v -1 h 0.31 v 1 l 0.85,-0.5 0.15,0.29 z"
       style="fill:#263238"
       id="path146" />
    <path
       d="m 40.427522,211.77868 v -0.72 a 1.26,1.26 0 0 0 -1.26,-1.26 h -12.77 a 1.26,1.26 0 0 0 -1.26,1.26 v 0.72 z"
       style="fill:#263238"
       id="path172" />
    <path
       d="m 25.137522,212.76868 v 5.3 a 1.26,1.26 0 0 0 1.26,1.26 h 12.77 a 1.26,1.26 0 0 0 1.26,-1.26 v -5.3 z"
       style="fill:#263238"
       id="path174" />
    <path
       d="m 92.537522,321.65868 h -41.46 a 9.71,9.71 0 0 1 -9.7,-9.7 v 0 a 9.71,9.71 0 0 1 9.7,-9.71 h 41.46 a 9.7,9.7 0 0 1 9.699998,9.71 v 0 a 9.7,9.7 0 0 1 -9.699998,9.7 z"
       style="fill:#263238"
       id="path200" />
    <path
       d="m 11.327523,291.11868 c 1.5,23.05 -9.1800005,48.72 -9.1800005,48.72 l -57.6900005,-16.24 -10.06,-2.84 c 10,-13.89 14.76,-41.25 12.15,-63.39 -0.2,-1.67 -0.32,-3.24 -0.41,-4.74 -1,-18.26 6.59,-23.6 13,-31.67 7,-8.74 22.58,-41.74 22.58,-49.55 0,-7.81 19.5500005,-26.93 15.2000005,-48.63 0,0 5.91,-3.67 11.8500004,-0.66 2.7000001,1.36 5.3900001,4.09 7.5600001,9.15 5.09,11.89 -2.06,45.5 -8.1400001,53.74 l -11.7100004,48.48 c 0,0 3.94999999,6.81 7.8300004,19.17 a 164.89,164.89 0 0 1 7.0200001,38.46 z"
       style="fill:#ffffff"
       id="path208" />
    <path
       d="m -53.862478,252.62868 c 3.27,8.95 6.74,15 6.44,27.54 -0.3,12.54 -7,31.84 -5.09,41.87 a 8.83,8.83 0 0 0 -3,1.56 l -10.06,-2.84 c 10,-13.89 14.76,-41.25 12.15,-63.39 -0.23,-1.67 -0.35,-3.24 -0.44,-4.74 z"
       style="opacity:0.4;fill:#90caf9"
       id="path210" />
    <path
       d="m 8.1875229,185.00868 -11.7100004,48.48 c 0,0 3.94999999,6.81 7.8300004,19.17 v 0 c -7.9300004,-12.78 -14.6700009,-16.6 -14.6700009,-16.6 5.2800005,-6.33 9.3500005,-52.63 9.3500005,-52.63 0,0 16.5500005,-19.45 15.0000005,-39.8 a 65,65 0 0 0 -5.2200001,-21.51 c 2.7000001,1.36 5.3900001,4.09 7.5600001,9.15 5.09,11.89 -2.06,45.5 -8.1400001,53.74 z"
       style="opacity:0.4;fill:#90caf9"
       id="path212" />
    <path
       d="m -65.602478,320.75868 c 10,-13.89 14.76,-41.25 12.16,-63.39 -2.6,-22.14 5.64,-27.68 12.59,-36.42 6.95,-8.74 22.57,-41.73 22.57,-49.55 0,-7.82 19.5400005,-26.91 15.2000005,-48.62 0,0 12.4700004,-7.73 19.4100005,8.49 5.09,11.9 -2.06,45.5 -8.1400001,53.75 l -11.7000004,48.47 c 0,0 12.4900004,21.55 14.8400005,57.63 1.5,23.05 -9.1800005,48.73 -9.1800005,48.73"
       style="fill:none;stroke:#263238;stroke-linecap:round;stroke-linejoin:round"
       id="path214" />
    <path
       d="m -27.042478,358.28868 c 0,0 13.13,8.08 20.7900005,20.86"
       style="fill:none;stroke:#263238;stroke-linecap:round;stroke-linejoin:round"
       id="path216" />
    <path
       d="m 9.8375229,373.57868 c 0,0 -11.3100004,1.61 -21.5300009,-10.62 -6.55,-7.83 -26.44,-11.37 -31,-31.85"
       style="fill:none;stroke:#263238;stroke-linecap:round;stroke-linejoin:round"
       id="path218" />
    <text
       style="font-weight:700;font-size:17.5492px;font-family:Arial, sans-serif;white-space:pre;fill:#333333;stroke-width:0.731218"
       transform="scale(1.1633018,0.85962214)"
       id="text226"
       x="-155.13327"
       y="72.747063"><tspan
         x="30.768606"
         y="147.62448"
         id="tspan220"
         style="stroke-width:0.731218">CREDIT</tspan><tspan
         x="30.768606"
         dy="17.549227"
         id="tspan222"
         style="stroke-width:0.731218">​</tspan><tspan
         x="30.768606"
         dy="17.549227"
         id="tspan224"
         style="stroke-width:0.731218">​</tspan></text>
    <text
       style="white-space: pre; fill: rgb(51, 51, 51); font-family: Arial, sans-serif; font-size: 24px;"
       x="224.117"
       y="132.138"
       id="text228" />
    <text
       style="font-weight:700;font-size:15.4382px;font-family:Arial, sans-serif;white-space:pre;fill:#333333;stroke-width:0.643259"
       x="38.380966"
       y="272.41531"
       transform="scale(1.0006236,0.99937679)"
       id="text230">5,000 DAI</text>
    <text
       style="font-size:12.6467px;font-family:Arial, sans-serif;white-space:pre;fill:#333333;stroke-width:0.526945"
       x="27.820597"
       y="156.63889"
       transform="scale(0.97138061,1.0294626)"
       id="text232">ormi.eth</text>
    <text
       style="white-space: pre; fill: rgb(51, 51, 51); font-family: Arial, sans-serif; font-size: 24px;"
       x="15.578"
       y="302.935"
       id="text234" />
    <text
       style="white-space: pre; fill: rgb(51, 51, 51); font-family: Arial, sans-serif; font-size: 24px;"
       x="-37.034"
       y="147.006"
       id="text238"><tspan
         x="-37.034000396728516"
         dy="1em"
         id="tspan236">​</tspan></text>
    <text
       xml:space="preserve"
       style="font-style:normal;font-weight:normal;font-size:9.33333px;line-height:1.25;font-family:sans-serif;fill:#f2f2f2;fill-opacity:0;stroke:none"
       x="47.796566"
       y="315.72073"
       id="text1489"><tspan
         sodipodi:role="line"
         id="tspan1487"
         x="47.796566"
         y="315.72073"
         style="font-size:9.33333px;fill:#ffffff;fill-opacity:1">4.5% APR</tspan></text>
    <text
       xml:space="preserve"
       style="font-style:normal;font-weight:normal;font-size:8px;line-height:1.25;font-family:sans-serif;fill:#000000;fill-opacity:1;stroke:none"
       x="44.110577"
       y="289.63226"
       id="text23022"><tspan
         sodipodi:role="line"
         id="tspan23020"
         x="44.110577"
         y="289.63226"
         style="font-size:8px">30% collateral</tspan></text>
    <text
       xml:space="preserve"
       style="font-style:normal;font-weight:normal;font-size:40px;line-height:1.25;font-family:sans-serif;fill:#000000;fill-opacity:1;stroke:none"
       x="52.078106"
       y="249.48769"
       id="text36544"><tspan
         sodipodi:role="line"
         id="tspan36542"
         x="52.078106"
         y="249.48769"
         style="font-weight:bold"><tspan
           style="font-weight:bold;font-size:13.3333px"
           id="tspan37794">LOAN:</tspan></tspan></text>
    <text
       xml:space="preserve"
       style="font-size:10px;line-height:1.25;font-family:sans-serif"
       x="62.578106"
       y="219.48767"
       id="text51852"><tspan
         sodipodi:role="line"
         id="tspan51850"
         x="62.578106"
         y="219.48767"
         style="font-size:10px;fill:#f9f9f9">170</tspan></text>
  </g>
</svg>
